<svg width="470" height="27" viewBox="0 0 470 27" fill="none" xmlns="http://www.w3.org/2000/svg">
<path d="M12.8751 26.9648C4.95745 26.9648 0 21.7901 0 13.5528C0 5.42112 5.24277 0.0704024 13.1248 0.0704024C19.7228 0.0704024 24.4663 3.80183 25.2866 9.64537H19.1878C18.4032 7.04042 16.1563 5.56193 12.9821 5.56193C8.70228 5.56193 6.09873 8.55411 6.09873 13.5176C6.09873 18.4107 8.73795 21.4733 12.9821 21.4733C16.2276 21.4733 18.6172 19.8892 19.3305 17.3194H25.3222C24.3949 23.1278 19.4731 26.9648 12.8751 26.9648ZM31.5347 26.5424H25.5073L34.9229 0.492829H40.558L49.9379 26.5424H43.8035L41.9489 21.0508H33.425L31.5347 26.5424ZM36.9915 10.7014L35.1012 16.2634H40.3083L38.4181 10.7014C38.1328 9.82138 37.8118 8.80052 37.7048 8.16688C37.5978 8.76532 37.3125 9.75098 36.9915 10.7014ZM58.7873 0.492829V21.2621H69.2015V26.5424H53.0096V0.492829H58.7873ZM78.605 0.492829V21.2621H89.0192V26.5424H72.8272V0.492829H78.605ZM98.4228 0.492829V26.5424H92.6451V0.492829H98.4228ZM102.467 8.06128C102.467 3.3442 106.498 0 112.168 0C117.839 0 121.406 3.09778 121.406 8.02608H115.664C115.664 6.19557 114.273 5.0691 112.097 5.0691C109.743 5.0691 108.245 6.12516 108.245 7.85007C108.245 9.43416 109.065 10.2086 110.92 10.5958L114.879 11.4055C119.587 12.3559 121.834 14.5737 121.834 18.6923C121.834 23.7262 117.839 27 111.776 27C105.891 27 102.075 23.867 102.075 18.9739H107.817C107.817 20.8748 109.244 21.9309 111.812 21.9309C114.415 21.9309 116.056 20.91 116.056 19.2555C116.056 17.8123 115.378 17.073 113.631 16.721L109.6 15.9113C104.893 14.9609 102.467 12.3207 102.467 8.06128ZM123.282 5.77314V0.492829H144.039V5.77314H136.549V26.5424H130.772V5.77314H123.282ZM170.816 13.4824C170.816 21.4381 165.502 26.9648 157.834 26.9648C150.202 26.9648 144.959 21.4733 144.959 13.5176C144.959 5.56193 150.238 0.0352021 157.87 0.0352021C165.538 0.0352021 170.816 5.52673 170.816 13.4824ZM164.718 13.4824C164.718 8.5189 162.15 5.52673 157.906 5.52673C153.626 5.52673 151.058 8.5189 151.058 13.4824C151.058 18.4811 153.626 21.4733 157.906 21.4733C162.15 21.4733 164.718 18.4107 164.718 13.4824ZM194.624 26.5424H184.282V0.492829H194.268C202.007 0.492829 207.393 5.84355 207.393 13.588C207.393 21.1917 202.15 26.5424 194.624 26.5424ZM193.697 5.77314H190.059V21.2621H194.054C198.619 21.2621 201.294 18.4107 201.294 13.588C201.294 8.65971 198.476 5.77314 193.697 5.77314ZM217.19 0.492829V26.5424H211.412V0.492829H217.19ZM234.575 5.42112C229.796 5.42112 227.335 8.73012 227.335 13.764C227.335 19.0091 230.331 21.6141 234.539 21.6141C238.89 21.6141 240.816 19.2907 241.066 16.5802H234.075V11.5815H246.487V26.5424H241.529L241.208 24.1838C239.782 25.8383 236.929 26.9296 233.79 26.9296C226.407 26.9296 221.236 21.5789 221.236 13.588C221.236 5.73794 226.55 0.0704024 234.717 0.0704024C241.03 0.0704024 245.881 3.73142 246.487 9.36375H240.424C239.746 6.61799 237.321 5.42112 234.575 5.42112ZM257.035 0.492829V26.5424H251.257V0.492829H257.035ZM260.509 5.77314V0.492829H281.266V5.77314H273.776V26.5424H267.998V5.77314H260.509ZM285.997 26.5424H279.969L289.385 0.492829H295.02L304.4 26.5424H298.265L296.411 21.0508H287.887L285.997 26.5424ZM291.453 10.7014L289.563 16.2634H294.77L292.88 10.7014C292.595 9.82138 292.274 8.80052 292.167 8.16688C292.06 8.76532 291.774 9.75098 291.453 10.7014ZM313.25 0.492829V21.2621H323.664V26.5424H307.472V0.492829H313.25ZM335.266 8.06128C335.266 3.3442 339.296 0 344.967 0C350.638 0 354.204 3.09778 354.204 8.02608H348.462C348.462 6.19557 347.071 5.0691 344.896 5.0691C342.542 5.0691 341.044 6.12516 341.044 7.85007C341.044 9.43416 341.864 10.2086 343.719 10.5958L347.678 11.4055C352.385 12.3559 354.632 14.5737 354.632 18.6923C354.632 23.7262 350.638 27 344.575 27C338.69 27 334.874 23.867 334.874 18.9739H340.616C340.616 20.8748 342.043 21.9309 344.61 21.9309C347.214 21.9309 348.855 20.91 348.855 19.2555C348.855 17.8123 348.177 17.073 346.429 16.721L342.399 15.9113C337.691 14.9609 335.266 12.3207 335.266 8.06128ZM356.08 5.77314V0.492829H376.837V5.77314H369.348V26.5424H363.57V5.77314H356.08ZM380.12 16.7562V0.492829H385.898V16.369C385.898 19.6428 387.717 21.4381 390.963 21.4381C394.244 21.4381 396.098 19.5724 396.098 16.369V0.492829H401.876V16.7562C401.876 22.9518 397.596 26.9648 390.963 26.9648C384.365 26.9648 380.12 22.987 380.12 16.7562ZM417.531 26.5424H407.188V0.492829H417.175C424.914 0.492829 430.299 5.84355 430.299 13.588C430.299 21.1917 425.057 26.5424 417.531 26.5424ZM416.604 5.77314H412.966V21.2621H416.961C421.526 21.2621 424.201 18.4107 424.201 13.588C424.201 8.65971 421.383 5.77314 416.604 5.77314ZM440.097 0.492829V26.5424H434.319V0.492829H440.097ZM470 13.4824C470 21.4381 464.686 26.9648 457.018 26.9648C449.386 26.9648 444.143 21.4733 444.143 13.5176C444.143 5.56193 449.421 0.0352021 457.054 0.0352021C464.722 0.0352021 470 5.52673 470 13.4824ZM463.901 13.4824C463.901 8.5189 461.333 5.52673 457.089 5.52673C452.809 5.52673 450.242 8.5189 450.242 13.4824C450.242 18.4811 452.809 21.4733 457.089 21.4733C461.333 21.4733 463.901 18.4107 463.901 13.4824Z" fill="black"/>
</svg>
