<svg width="48" height="48" viewBox="0 0 48 48" fill="none" xmlns="http://www.w3.org/2000/svg">
<path d="M12 12H28M12 20H36M26 28H36M26 36H36M4 42.8V5.2C4 4.88174 4.12643 4.57652 4.35147 4.35147C4.57652 4.12643 4.88174 4 5.2 4H36.504C36.8222 4.00028 37.1272 4.12689 37.352 4.352L43.648 10.648C43.7599 10.7598 43.8487 10.8926 43.9091 11.0389C43.9695 11.1851 44.0004 11.3418 44 11.5V42.8C44 42.9576 43.969 43.1136 43.9087 43.2592C43.8484 43.4048 43.76 43.5371 43.6485 43.6485C43.5371 43.76 43.4048 43.8484 43.2592 43.9087C43.1136 43.969 42.9576 44 42.8 44H5.2C5.04241 44 4.88637 43.969 4.74078 43.9087C4.59519 43.8484 4.4629 43.76 4.35147 43.6485C4.24004 43.5371 4.15165 43.4048 4.09134 43.2592C4.03104 43.1136 4 42.9576 4 42.8Z" stroke="black" stroke-width="3" stroke-linecap="round" stroke-linejoin="round"/>
<path d="M36 4V10.8C36 10.9576 36.031 11.1136 36.0913 11.2592C36.1516 11.4048 36.24 11.5371 36.3515 11.6485C36.4629 11.76 36.5952 11.8483 36.7408 11.9087C36.8864 11.969 37.0424 12 37.2 12H44M12 36V28H18V36H12Z" stroke="black" stroke-width="3" stroke-linecap="round" stroke-linejoin="round"/>
</svg>
