<svg width="16" height="16" viewBox="0 0 16 16" fill="none" xmlns="http://www.w3.org/2000/svg">
<path d="M12.375 4V10.5C12.375 10.5995 12.3355 10.6948 12.2652 10.7652C12.1949 10.8355 12.0995 10.875 12 10.875C11.9006 10.875 11.8052 10.8355 11.7348 10.7652C11.6645 10.6948 11.625 10.5995 11.625 10.5V4.90625L4.26252 12.2625C4.1929 12.3321 4.09847 12.3712 4.00002 12.3712C3.90156 12.3712 3.80713 12.3321 3.73752 12.2625C3.6679 12.1929 3.62878 12.0985 3.62878 12C3.62878 11.9015 3.6679 11.8071 3.73752 11.7375L11.0938 4.375H5.50002C5.40056 4.375 5.30518 4.33549 5.23485 4.26516C5.16452 4.19484 5.12502 4.09946 5.12502 4C5.12502 3.90054 5.16452 3.80516 5.23485 3.73483C5.30518 3.66451 5.40056 3.625 5.50002 3.625H12C12.0995 3.625 12.1949 3.66451 12.2652 3.73483C12.3355 3.80516 12.375 3.90054 12.375 4Z" fill="#AAAAAA"/>
</svg>
