<svg width="16" height="16" viewBox="0 0 16 16" fill="none" xmlns="http://www.w3.org/2000/svg">
<path d="M13.875 8.00002C13.875 8.09947 13.8355 8.19485 13.7652 8.26518C13.6948 8.33551 13.5995 8.37502 13.5 8.37502H3.40625L7.2625 12.2375C7.29697 12.272 7.32432 12.3129 7.34297 12.358C7.36163 12.403 7.37123 12.4513 7.37123 12.5C7.37123 12.5488 7.36163 12.597 7.34297 12.6421C7.32432 12.6871 7.29697 12.728 7.2625 12.7625C7.22803 12.797 7.1871 12.8243 7.14206 12.843C7.09702 12.8616 7.04875 12.8712 7 12.8712C6.95125 12.8712 6.90298 12.8616 6.85794 12.843C6.8129 12.8243 6.77197 12.797 6.7375 12.7625L2.2375 8.26252C2.20195 8.22866 2.17365 8.18793 2.15431 8.14281C2.13497 8.09769 2.125 8.04911 2.125 8.00002C2.125 7.95092 2.13497 7.90234 2.15431 7.85722C2.17365 7.8121 2.20195 7.77137 2.2375 7.73752L6.7375 3.23752C6.80712 3.1679 6.90154 3.12878 7 3.12878C7.09846 3.12878 7.19288 3.1679 7.2625 3.23752C7.33212 3.30713 7.37123 3.40156 7.37123 3.50002C7.37123 3.59847 7.33212 3.6929 7.2625 3.76252L3.40625 7.62502H13.5C13.5995 7.62502 13.6948 7.66452 13.7652 7.73485C13.8355 7.80518 13.875 7.90056 13.875 8.00002Z" fill="black"/>
</svg>
