<svg width="48" height="48" viewBox="0 0 48 48" fill="none" xmlns="http://www.w3.org/2000/svg">
<path d="M24.125 5C20.3424 5 16.6448 6.12166 13.4997 8.22314C10.3546 10.3246 7.90334 13.3115 6.45581 16.8062C5.00829 20.3008 4.62955 24.1462 5.36749 27.8561C6.10543 31.566 7.92691 34.9737 10.6016 37.6484C13.2763 40.3231 16.684 42.1446 20.3939 42.8825C24.1038 43.6205 27.9492 43.2417 31.4438 41.7942C34.9385 40.3467 37.9254 37.8954 40.0269 34.7503C42.1283 31.6052 43.25 27.9076 43.25 24.125C43.2401 19.0558 41.222 14.197 37.6375 10.6125C34.053 7.02804 29.1942 5.00991 24.125 5ZM40.9625 23H32.7313C32.4875 17 30.2938 11.4875 26.5625 7.4375C30.3801 7.9946 33.8916 9.84302 36.5118 12.6748C39.1321 15.5066 40.7029 19.1507 40.9625 23ZM17.7688 25.25H30.4813C30.2 31.025 27.8938 36.4438 24.125 40.1188C20.3563 36.4438 18.05 31.025 17.7688 25.25ZM17.7688 23C18.05 17.225 20.3563 11.8063 24.125 8.13125C27.8938 11.8063 30.2 17.225 30.4813 23H17.7688ZM21.6875 7.4375C17.9563 11.4875 15.7625 17 15.5188 23H7.28751C7.54715 19.1507 9.11794 15.5066 11.7382 12.6748C14.3584 9.84302 17.8699 7.9946 21.6875 7.4375ZM7.28751 25.25H15.5188C15.7625 31.25 17.9563 36.7625 21.6875 40.8313C17.8697 40.2668 14.3598 38.4137 11.7404 35.5794C9.12105 32.7452 7.54979 29.1004 7.28751 25.25ZM26.5625 40.8313C30.2938 36.7625 32.4875 31.25 32.7313 25.25H40.9625C40.7002 29.1004 39.129 32.7452 36.5096 35.5794C33.8902 38.4137 30.3803 40.2668 26.5625 40.8313Z" fill="black"/>
</svg>
