<svg width="24" height="24" viewBox="0 0 24 24" fill="none" xmlns="http://www.w3.org/2000/svg">
<path d="M21.3936 20.6061L17.2218 16.4249C18.6663 14.7736 19.4125 12.6256 19.3028 10.4344C19.1931 8.2432 18.2361 6.18042 16.634 4.68165C15.0318 3.18289 12.9098 2.36548 10.7162 2.40206C8.52254 2.43863 6.429 3.32632 4.87766 4.87766C3.32632 6.429 2.43863 8.52254 2.40206 10.7162C2.36548 12.9098 3.18289 15.0318 4.68165 16.634C6.18042 18.2361 8.2432 19.1931 10.4344 19.3028C12.6256 19.4125 14.7736 18.6663 16.4249 17.2218L20.6061 21.3936C20.7106 21.4981 20.8522 21.5567 20.9999 21.5567C21.1476 21.5567 21.2892 21.4981 21.3936 21.3936C21.4981 21.2892 21.5567 21.1476 21.5567 20.9999C21.5567 20.8522 21.4981 20.7106 21.3936 20.6061ZM3.56238 10.8749C3.56238 9.4286 3.99125 8.0148 4.79475 6.81227C5.59826 5.60973 6.74032 4.67247 8.0765 4.11901C9.41269 3.56554 10.883 3.42073 12.3015 3.70288C13.72 3.98504 15.0229 4.68149 16.0456 5.70416C17.0683 6.72683 17.7647 8.02979 18.0469 9.44828C18.329 10.8668 18.1842 12.3371 17.6307 13.6732C17.0773 15.0094 16.14 16.1515 14.9375 16.955C13.7349 17.7585 12.3212 18.1874 10.8749 18.1874C8.93624 18.1849 7.07772 17.4137 5.7069 16.0429C4.33607 14.672 3.56486 12.8135 3.56238 10.8749Z" fill="black"/>
</svg>
