<svg width="24" height="24" viewBox="0 0 24 24" fill="none" xmlns="http://www.w3.org/2000/svg">
<path d="M19.144 18.3565C19.1957 18.4082 19.2367 18.4696 19.2647 18.5371C19.2926 18.6047 19.3071 18.6771 19.3071 18.7502C19.3071 18.8233 19.2926 18.8957 19.2647 18.9633C19.2367 19.0309 19.1957 19.0922 19.144 19.144C19.0922 19.1957 19.0309 19.2367 18.9633 19.2647C18.8957 19.2926 18.8233 19.3071 18.7502 19.3071C18.6771 19.3071 18.6047 19.2926 18.5371 19.2647C18.4696 19.2367 18.4082 19.1957 18.3565 19.144L12.0002 12.7971L5.64396 19.144C5.53953 19.2484 5.39789 19.3071 5.25021 19.3071C5.10252 19.3071 4.96088 19.2484 4.85646 19.144C4.75203 19.0395 4.69336 18.8979 4.69336 18.7502C4.69336 18.6025 4.75203 18.4609 4.85646 18.3565L11.2033 12.0002L4.85646 5.64396C4.75203 5.53953 4.69336 5.39789 4.69336 5.25021C4.69336 5.10252 4.75203 4.96088 4.85646 4.85646C4.96088 4.75203 5.10252 4.69336 5.25021 4.69336C5.39789 4.69336 5.53953 4.75203 5.64396 4.85646L12.0002 11.2033L18.3565 4.85646C18.4609 4.75203 18.6025 4.69336 18.7502 4.69336C18.8979 4.69336 19.0395 4.75203 19.144 4.85646C19.2484 4.96088 19.3071 5.10252 19.3071 5.25021C19.3071 5.39789 19.2484 5.53953 19.144 5.64396L12.7971 12.0002L19.144 18.3565Z" fill="black"/>
</svg>
